<svg width="79" height="93" viewBox="0 0 79 93" fill="none" xmlns="http://www.w3.org/2000/svg">
<path d="M78.4134 46.8295C78.4163 48.0311 78.1082 49.213 77.5191 50.2602C76.93 51.3075 76.0799 52.1844 75.0514 52.8058L11.3155 91.7959C10.2409 92.4539 9.01014 92.8131 7.75033 92.8365C6.49052 92.8598 5.24733 92.5464 4.14914 91.9286C3.0614 91.3204 2.15529 90.4335 1.52398 89.3591C0.892669 88.2846 0.558946 87.0613 0.557129 85.8151V7.84383C0.558946 6.59762 0.892669 5.37439 1.52398 4.29992C2.15529 3.22545 3.0614 2.33852 4.14914 1.73035C5.24733 1.11258 6.49052 0.799173 7.75033 0.822503C9.01014 0.845832 10.2409 1.20505 11.3155 1.86306L75.0514 40.8531C76.0799 41.4745 76.93 42.3515 77.5191 43.3988C78.1082 44.446 78.4163 45.6279 78.4134 46.8295Z" fill="white"/>
</svg>
