<svg width="93" height="93" viewBox="0 0 93 93" fill="none" xmlns="http://www.w3.org/2000/svg">
<path fill-rule="evenodd" clip-rule="evenodd" d="M58.2813 10.0228C58.2813 12.4632 57.3119 14.8037 55.5862 16.5293C53.8606 18.2549 51.5202 19.2244 49.0798 19.2244C46.6394 19.2244 44.2989 18.2549 42.5733 16.5293C40.8477 14.8037 39.8782 12.4632 39.8782 10.0228C39.8782 7.58243 40.8477 5.24198 42.5733 3.51636C44.2989 1.79073 46.6394 0.821289 49.0798 0.821289C51.5202 0.821289 53.8606 1.79073 55.5862 3.51636C57.3119 5.24198 58.2813 7.58243 58.2813 10.0228ZM82.7549 57.0529H46.3372L57.8033 68.3657C58.2691 68.8255 58.6422 69.3704 58.9024 69.9709L65.7192 85.6902C65.9864 86.3061 66.1297 86.9686 66.1408 87.6399C66.1519 88.3112 66.0307 88.9781 65.7841 89.6026C65.5375 90.227 65.1704 90.7968 64.7036 91.2794C64.2368 91.7619 63.6795 92.1478 63.0636 92.415C62.4476 92.6822 61.7851 92.8254 61.1138 92.8365C60.4425 92.8477 59.7756 92.7265 59.1512 92.4799C58.5267 92.2333 57.9569 91.8661 57.4744 91.3993C56.9918 90.9325 56.606 90.3752 56.3388 89.7593L49.9156 74.9448L31.7809 57.0529H11.1873C9.83154 57.0529 8.53129 57.5915 7.57261 58.5502C6.61393 59.5089 6.07535 60.8091 6.07535 62.1649V92.8367H0.963379V62.1649C0.963379 59.4534 2.04054 56.8529 3.9579 54.9355C5.87526 53.0181 8.47576 51.941 11.1873 51.941H26.4312C24.5168 45.4948 25.2197 38.8339 26.7302 33.681C27.5405 30.918 28.6345 28.4004 29.8588 26.3914C30.4566 25.3907 31.1574 24.4553 31.9496 23.6002C32.6729 22.836 33.7643 21.8749 35.2212 21.3331C38.3958 20.1548 41.7237 20.2442 44.6912 21.7778C47.536 23.25 49.5399 25.7779 50.8383 28.5665C51.375 29.7167 51.8684 30.7902 52.331 31.7947C53.4556 34.2229 54.3937 36.2651 55.2959 38.0594C56.5637 40.5796 57.5656 42.2103 58.5369 43.3401C59.4238 44.3753 60.2903 44.9938 61.3945 45.4258C62.5958 45.8961 64.3237 46.236 67.0611 46.3178C67.7625 46.3388 68.4521 46.504 69.0869 46.8031C69.7217 47.1022 70.2881 47.5288 70.7509 48.0563C71.2136 48.5838 71.5629 49.2009 71.7767 49.8693C71.9906 50.5376 72.0647 51.2428 71.9942 51.941H82.7549C85.4664 51.941 88.0669 53.0181 89.9843 54.9355C91.9016 56.8529 92.9788 59.4534 92.9788 62.1649V92.8367H87.8668V62.1649C87.8668 60.8091 87.3282 59.5089 86.3696 58.5502C85.4109 57.5915 84.1106 57.0529 82.7549 57.0529ZM47.8989 45.8756L46.5826 51.941H52.6965C52.0114 51.3406 51.3708 50.6914 50.7795 49.9984C49.6981 48.7129 48.7341 47.3331 47.8989 45.8756ZM27.7654 61.5873L36.2002 69.6769L33.0129 80.4376C32.8851 80.8747 32.6959 81.2939 32.4557 81.6798L27.0319 90.4213C26.3167 91.5734 25.1731 92.3942 23.8528 92.7031C22.5325 93.012 21.1435 92.7838 19.9914 92.0686C18.8393 91.3535 18.0185 90.2099 17.7096 88.8896C17.4007 87.5692 17.6289 86.1803 18.3441 85.0282L23.4049 76.8746L26.835 65.3011L27.7654 61.5873Z" fill="white"/>
</svg>
