<svg width="93" height="93" viewBox="0 0 93 93" fill="none" xmlns="http://www.w3.org/2000/svg">
<path fill-rule="evenodd" clip-rule="evenodd" d="M78.9964 14.1926C74.7428 9.93699 69.6895 6.56473 64.1274 4.26995C58.5653 1.97517 52.6042 0.803201 46.5874 0.8215C21.3363 0.8215 0.780585 21.2746 0.770315 46.4188C0.759145 54.4253 2.86963 62.2917 6.88692 69.2174L0.38623 92.8376L24.674 86.4972C31.3969 90.1393 38.9228 92.0454 46.5689 92.0428H46.5874C71.8363 92.0428 92.39 71.5877 92.4024 46.4455C92.4177 40.4492 91.2403 34.5096 88.9388 28.9726C86.6373 23.4355 83.2576 18.4114 78.9964 14.1926ZM46.5874 84.3467H46.5709C39.7547 84.3487 33.0624 82.5246 27.19 79.064L25.7995 78.2424L11.3871 82.0052L15.2341 68.02L14.3283 66.5822C10.517 60.5481 8.49771 53.5557 8.50542 46.4188C8.50542 25.5241 25.5962 8.52374 46.6017 8.52374C56.6783 8.50575 66.3494 12.491 73.4879 19.6029C80.6264 26.7148 84.6477 36.371 84.6673 46.4475C84.659 67.3442 67.5765 84.3467 46.5874 84.3467ZM67.4738 55.9634C66.3298 55.3924 60.6958 52.636 59.6524 52.2561C58.609 51.8761 57.8388 51.6851 57.0768 52.8271C56.3148 53.969 54.1191 56.5241 53.4516 57.2944C52.7841 58.0646 52.1166 58.1488 50.9725 57.5778C49.8285 57.0068 46.1376 55.8053 41.7647 51.9233C38.3614 48.902 36.0651 45.1721 35.3976 44.0321C34.73 42.8922 35.3257 42.2739 35.8987 41.7071C36.4142 41.1956 37.0427 40.3761 37.6158 39.7106C38.1888 39.0452 38.3799 38.5687 38.7598 37.8087C39.1398 37.0487 38.9509 36.3833 38.6654 35.8143C38.3799 35.2454 36.0897 29.6361 35.1367 27.3542C34.2063 25.1318 33.2635 25.4338 32.5611 25.3988C31.8935 25.366 31.1233 25.3578 30.3654 25.3578C29.786 25.3729 29.216 25.5072 28.6908 25.7525C28.1657 25.9977 27.6967 26.3486 27.3133 26.7832C26.2637 27.9252 23.3061 30.6857 23.3061 36.2888C23.3061 41.8919 27.4139 47.3143 27.9808 48.0743C28.5477 48.8342 36.0528 60.3424 47.5363 65.278C49.6687 66.1912 51.8475 66.9919 54.0637 67.677C56.8057 68.5437 59.3012 68.4226 61.273 68.1289C63.4727 67.8023 68.051 65.3725 69.0019 62.7106C69.9529 60.0487 69.9549 57.7688 69.6695 57.2944C69.384 56.8199 68.6199 56.5323 67.4738 55.9634Z" fill="white"/>
</svg>
